<?xml version="1.0" standalone="no"?>
<!DOCTYPE svg PUBLIC "-//W3C//DTD SVG 20010904//EN"
 "http://www.w3.org/TR/2001/REC-SVG-20010904/DTD/svg10.dtd">
<svg version="1.0" xmlns="http://www.w3.org/2000/svg"
 width="500.000000pt" height="500.000000pt" viewBox="0 0 500.000000 500.000000"
 preserveAspectRatio="xMidYMid meet">
<metadata>
Created by potrace 1.14, written by Peter Selinger 2001-2017
</metadata>
<g transform="translate(0.000000,500.000000) scale(0.100000,-0.100000)"
fill="#000000" stroke="none">
<path d="M2350 4930 l-115 -5 2 -25 c13 -183 18 -696 9 -810 -7 -78 -17 -183
-21 -225 -2 -22 -7 -166 -10 -320 -5 -261 -7 -319 -21 -515 -8 -129 -36 -187
-104 -214 l-40 -16 0 -70 c0 -38 0 -73 0 -77 0 -5 44 -9 97 -10 54 -1 170 -5
258 -7 88 -3 273 -8 411 -11 l251 -6 2 66 c2 65 2 65 -26 66 -148 6 -249 51
-272 122 -31 94 -44 237 -44 487 -1 278 15 528 34 540 5 3 66 5 136 4 574 -8
969 -16 972 -20 2 -2 4 -151 5 -331 0 -289 -5 -464 -18 -528 -2 -11 -7 -40
-11 -65 -15 -96 -60 -165 -120 -183 -11 -4 -47 -9 -80 -12 -33 -3 -83 -10
-112 -16 l-51 -10 -4 -48 c-6 -85 -12 -81 125 -82 67 0 174 -2 237 -4 63 -2
280 -7 481 -10 l366 -7 21 26 c21 27 21 68 1 93 -6 6 -36 15 -67 19 -158 19
-198 41 -231 129 -34 90 -39 191 -27 560 3 94 8 260 12 370 3 110 8 259 10
330 3 72 6 258 8 415 1 157 6 302 10 323 l8 37 -78 1 c-44 0 -168 3 -277 5
l-199 5 6 -28 c22 -100 25 -250 11 -453 -12 -159 -13 -189 -15 -262 -1 -37 -5
-66 -9 -64 -4 3 -126 7 -272 10 -605 13 -816 20 -841 25 -8 1 -3 631 6 686 4
22 11 56 16 75 6 19 10 38 10 43 0 7 -231 6 -440 -3z"/>
<path d="M475 4848 c-2 -7 -6 -31 -7 -52 -3 -38 -2 -40 32 -43 56 -5 123 -23
147 -39 63 -41 82 -166 79 -537 l-2 -277 210 2 211 3 -4 130 c-13 431 2 597
57 659 29 32 100 55 189 61 l38 2 0 49 0 49 -473 3 c-373 2 -473 0 -477 -10z"/>
<path d="M696 3680 c-82 -6 -85 -10 -80 -125 2 -38 5 -223 8 -410 5 -377 2
-405 -54 -464 -17 -17 -45 -34 -61 -38 -29 -5 -31 -8 -26 -39 4 -24 1 -36 -10
-42 -10 -6 -13 -16 -9 -30 5 -15 17 -21 54 -25 60 -5 299 0 332 8 14 3 232 8
485 11 253 3 484 6 514 7 l54 2 18 54 c17 49 41 159 55 251 3 19 11 71 18 115
19 127 19 127 -41 140 -62 14 -62 15 -93 -75 -40 -114 -78 -189 -113 -224 -55
-55 -93 -70 -277 -112 -14 -3 -77 -8 -140 -10 -186 -5 -241 24 -260 141 -20
125 -22 169 -24 515 l-3 355 -139 0 c-76 0 -170 -2 -208 -5z"/>
<path d="M3648 2545 c-2 -2 -45 -6 -96 -9 -51 -3 -96 -7 -100 -10 -4 -2 -31
-7 -59 -11 -118 -15 -296 -86 -418 -168 -123 -82 -310 -297 -373 -427 -28 -59
-61 -166 -87 -285 -7 -33 -20 -95 -30 -138 -44 -204 34 -554 174 -772 69 -108
187 -226 299 -299 147 -96 391 -194 543 -218 87 -14 99 -28 54 -62 -65 -49
-62 -45 -39 -46 12 0 25 -7 28 -16 3 -8 10 -12 16 -9 5 3 10 1 10 -4 0 -16 16
-13 35 5 8 9 22 14 29 11 17 -7 53 30 61 63 6 23 10 25 73 26 93 1 318 13 334
18 7 3 40 7 73 10 172 15 179 17 202 43 28 34 121 276 147 384 3 9 18 50 35
90 41 101 41 100 1 114 -72 27 -79 23 -150 -87 -97 -152 -216 -271 -334 -337
-38 -22 -118 -52 -123 -47 -1 1 30 38 71 82 144 156 186 208 171 217 -33 18
-98 -9 -133 -56 -33 -43 -64 -72 -58 -54 4 13 0 20 -14 24 -11 3 -17 9 -14 14
12 19 -15 8 -40 -17 -28 -29 -35 -60 -11 -50 9 3 19 -3 25 -14 8 -15 6 -21
-10 -30 -16 -9 -18 -15 -10 -30 9 -17 7 -20 -12 -20 -19 0 -20 -2 -8 -10 8 -5
10 -10 4 -10 -7 0 -36 -17 -65 -37 -47 -32 -62 -37 -114 -37 -40 0 -89 9 -146
28 -74 24 -86 31 -82 47 4 14 0 19 -15 19 -11 0 -22 -5 -24 -10 -5 -17 -118
45 -169 92 -96 89 -165 205 -220 370 -17 50 -33 101 -35 112 -27 118 -36 196
-39 346 -4 143 -1 194 15 278 34 188 70 274 190 460 79 123 114 169 106 137
-3 -11 -8 -35 -11 -52 -5 -30 -3 -33 21 -33 29 0 93 42 143 93 25 26 35 47 38
81 5 42 4 44 -16 39 -30 -8 -26 4 7 21 24 12 123 41 172 51 122 23 214 25 307
9 43 -8 86 -19 95 -24 10 -6 23 -10 29 -10 19 0 122 -67 165 -107 92 -87 158
-204 196 -347 l23 -88 55 6 c30 3 58 5 62 6 4 0 4 100 1 223 -4 122 -7 252 -7
289 -1 74 2 71 -81 83 -16 2 -41 7 -55 10 -22 5 -288 44 -395 58 -22 3 -96 9
-165 12 -69 4 -153 8 -187 10 -34 2 -63 2 -65 0z m339 -2121 c-3 -3 -12 -4
-19 -1 -8 3 -5 6 6 6 11 1 17 -2 13 -5z"/>
<path d="M2287 2344 c-5 -5 -230 -15 -373 -15 -89 -1 -166 -4 -172 -8 -17 -11
-22 -47 -10 -64 14 -18 21 -20 105 -32 28 -4 60 -13 70 -20 17 -14 17 -17 -11
-67 -29 -53 -220 -353 -308 -482 -26 -39 -45 -74 -42 -78 6 -9 85 -53 96 -53
3 0 41 52 83 115 112 166 327 450 382 505 52 50 124 89 188 101 60 10 75 21
75 53 0 35 -19 52 -54 49 -15 -1 -28 -3 -29 -4z"/>
<path d="M1147 2303 c-6 -5 -243 -14 -461 -18 -132 -2 -243 -8 -248 -13 -5 -5
-8 -25 -6 -43 3 -31 6 -34 48 -41 130 -23 175 -49 260 -150 33 -40 64 -77 68
-83 4 -5 47 -65 96 -133 49 -67 92 -124 96 -127 5 -3 28 -7 52 -10 23 -2 54
-7 68 -9 14 -3 61 -10 105 -16 90 -13 101 -14 165 -25 l44 -7 -25 33 c-46 61
-214 292 -261 360 -49 70 -80 126 -84 147 -3 17 46 38 105 46 47 6 61 18 61
52 0 28 -21 45 -54 42 -15 -1 -28 -3 -29 -5z"/>
<path d="M896 1639 c69 -90 266 -372 273 -393 7 -17 7 -35 0 -52 -16 -44 -459
-651 -513 -705 -58 -57 -143 -101 -233 -119 -35 -7 -63 -15 -64 -19 0 -3 -2
-15 -4 -25 -2 -11 1 -28 7 -39 9 -17 17 -18 96 -12 126 11 196 13 390 15 168
1 173 2 181 23 8 22 4 54 -9 62 -4 2 -31 7 -60 11 -91 11 -105 18 -103 47 1
15 28 70 60 124 32 53 65 108 73 123 67 114 270 420 279 420 5 0 55 -63 112
-140 114 -155 103 -148 214 -130 33 5 80 11 105 14 112 13 150 19 150 23 0 2
-40 57 -88 121 -106 140 -242 329 -259 360 -17 29 -16 41 7 86 10 22 17 43 14
48 -3 4 -27 19 -53 32 l-47 24 -13 -21 -14 -21 -19 25 c-11 13 -28 34 -38 46
-9 12 -30 24 -46 27 -16 2 -78 12 -139 21 -284 41 -272 40 -259 24z"/>
<path d="M3430 893 c0 -5 5 -15 10 -23 7 -12 12 -12 22 -2 10 10 10 15 -2 22
-18 12 -30 13 -30 3z"/>
<path d="M3750 855 c-14 -8 -32 -14 -41 -15 -20 0 -49 -31 -49 -53 0 -8 -10
-17 -22 -19 -36 -5 -32 -26 6 -34 33 -6 41 -14 37 -36 -1 -8 14 -12 36 -9 7 1
32 -3 54 -9 39 -11 44 -10 64 12 31 34 28 101 -6 131 -50 45 -52 46 -79 32z"/>
<path d="M3358 822 c-32 -27 -36 -51 -10 -53 32 -3 77 0 108 6 29 5 31 8 25
38 -7 30 -9 32 -51 32 -32 0 -52 -7 -72 -23z"/>
<path d="M1735 824 c-49 -6 -115 -15 -145 -19 -30 -4 -56 -8 -58 -9 -1 -2 32
-49 74 -106 95 -128 154 -220 154 -241 0 -26 -21 -38 -98 -55 -77 -17 -90 -31
-72 -78 9 -26 11 -26 77 -21 199 14 448 24 651 25 128 0 133 1 141 22 17 46 0
62 -84 76 -156 26 -198 59 -384 299 -107 139 -85 130 -256 107z"/>
<path d="M3297 815 c-7 -16 8 -29 23 -20 10 6 2 35 -10 35 -4 0 -10 -7 -13
-15z"/>
<path d="M3454 85 c-18 -13 -18 -14 4 -8 12 3 25 9 28 14 8 14 -10 11 -32 -6z"/>
<path d="M3475 23 l-30 -24 50 3 c35 2 50 7 50 17 0 27 -39 30 -70 4z"/>
</g>
</svg>
