<svg xmlns="http://www.w3.org/2000/svg" width="3188.81" height="949.031" viewBox="0 0 3188.81 949.031">
  <defs>
    <style>
      .cls-1 {
        fill: #fff;
        fill-rule: evenodd;
      }
    </style>
  </defs>
  <path id="Color_Fill_1" data-name="Color Fill 1" class="cls-1" d="M568,33c63.5-1.06,105.12,20.4,140,48,13.879,10.982,26.27,39.346,41,42q0.5-4.5,1-9c3.281,3.708,7.554,8.542,13,7,5.964-1.708,6.109-5.519,10-9,2.479,1.182,2.544.776,2-2q1-2,2-4h3c1.685,2.1,1.549,1.975,2,6-3.151,2.23-5.853,3-10,5,2.949,2.655,1.937,1.547,3,8,2.8,0.248,7.789.469,11,2,1.471,8.839,1.527,20.815-1,30,7.5,0.138,6.868.966,10,5l-3,5-5-1c0.489,4.282-1.6,7.05-4,9-2.868-3.052-11.353-5.888-14-4,3.037,1.943,1.044.328,2,3-3.106.007-1.588-.083-5,1l7,41-2,1c-6.424-1.866-35.119,2.35-43,5l-45-2-2-2c-0.911-63.347-27.822-120.773-69-145-43.818-25.78-104.078-6.634-125,26,3.462,6.358,2.98,8.566-1,14-5.06-.373-6.721-2.207-8,0-10.443,11.407-17.046,34-20,52,5.092,0.426,5.936.574,8,4h-1l-8-3c-0.5,11.648-2.3,41.5-9,49-16.262-.183-64.156,5.659-87,6q4-19.5,8-39l-1-1-3,2q0.5-5.5,1-11c-25.386-10.085-61.7-57.961-37-92,14.726-20.293,48.657-16.575,77-13q0.5-6.5,1-13c19.013-6.882,24.13-10.722,45-5q2.5,8,5,16c21.2-12.4,44.374-21.613,72-28Zm968,1,9-1c-0.33,2.666-.67,5.334-1,8h3c0.67-.667,1.33-1.333,2-2-1.36-2.267-1.45-1.976-2-6,5.2,1.609,5.53,4.031,9,7,7.94-.865,7.1-3.742,13-6,0.67,0.333,1.33.667,2,1,0.54,7.15,1.85,6.881,6,10,0.67-.667,1.33-1.333,2-2-1.08-3.747-1.74-1.192,0-5,0.67-.333,1.33-0.667,2-1,17.92,0.234,35.31,7.152,50,13q6.495,43.5,13,87l-22,4c-10.07-27.459-20.9-55.714-44-70-47.78-29.545-91.81.789-100,46-12.82,70.746,112.22,83.1,142,120-55.55.338-96.61-2.189-173-2-11.55-15.045-25.48-27.558-32-48-28.8-90.354,50.39-146.615,116-153-1.24,6.2,1.76,8.441,3,15l3-2c0.33-.667.67-1.333,1-2Q1537,39.5,1536,34ZM250,43V62c-17.464.494-37.382,3.383-45,14-15.216,21.208-8.453,110.807-8,148H117c0.494-36.775,6.838-136.293-11-152-8.3-7.305-24.248-8.359-38-10l3-19H250Zm533,0H964V62c-15.46.743-34.275,3.306-41,13-15.354,22.132-8.463,111-8,149-14.978.206-28.432,6.2-42,4l-38-3c2.422-22.583,5.346-129.709-7-148-7.584-11.235-26.869-14.505-45-15V43Zm273,0h221a120.609,120.609,0,0,0,31,4V46c-1.33-.667-2.67-1.333-4-2V43l12,1c-0.67,1-1.33,2-2,3h-4c0.33,0.667.67,1.333,1,2,5.63,0.53,8.28,1.388,12-1-2.89-3.142-1.16.208-2-4,0.67-.333,1.33-0.667,2-1,20.07-.2,35.5.872,61,0v7c-3.49-.575-2.93-0.353-6,1,2.74,2.763,2.05,2.544,6,2v9c-64.61,2.68-51.01,49.853-51,113,0,12.7,4.67,51.5-4,56-1.83-2.923-54.92.655-76,1,0.54-39.347,7.64-136.591-9-158-6.51-8.376-23.13-10.176-36-12-67.83-9.615-54.75,107.968-54,169l-33-1c0.5-35.283,2.55-131.171-10-150-8.99-13.49-33.01-17.782-55-18V43Zm869,0h317V62c-33.98.5-50.53,11.862-50,47,16.56,1.822,26.34,11.357,26,30-4.07,7.841-9.23,15-18,18l-9,1v91l-80-3c0.31-40.326,7.94-161.568-13-176-15.69-10.813-51.08-8.275-65,2-22.08,16.3-66.03,127.487-76,161h-35v-1c10.95-29.291,51.66-126.285,46-157-8.1-10.817-25.57-11.676-43-13V43Zm327,0h54l3,5c2.82-6.391,27.04-5.587,41-5-0.33.667-.67,1.333-1,2l-3,2-6-3c-4.36,2.411-5.6,4.224-12,5,0.33,0.667.67,1.333,1,2l14,1c-0.33.667-.67,1.333-1,2-15.97,4.652-41.2,16.19-60,13l-30-5V43Zm303,0c9.58-.254,25.83-2.274,31,4,2.78-7.46,27.18-4,37-4h117V62c-17.15.508-37.71,3.351-45,14-14.5,21.183-8.39,141.843-8,182l-52,1,3-6-31,2c0.51-42.01,8.8-158.832-9-181-7.39-9.2-27.32-11.444-43-12V43Zm306,0h4c-0.67.333-1.33,0.667-2,1-0.67.667-1.33,1.333-2,2V43Zm290,96-22,1v-2q-4.005-14.5-8-29c-13.8-35.252-40.78-39-90-39-14.36,0-30.12-1.036-39,4-6.74,43.342-2.05,98.083-2,145,69.39,1.152,99.16,13.789,107-52h22v94h-33c-5.58-2.342-9.52-8.249-18-10l-78-1v7h-80c0.5-41.6,9.02-159-8-182-7.19-9.716-25.16-12.132-41-13,0.67-1,1.33-2,2-3l3-2c-1.97-5.3-3.73-3.556-5-10h1c3.04,2.4,2.23,1,7,0v1c-1.21,3.991-.75,12.2,1,14l6-5V56c-1.33-2.666-2.67-5.334-4-8,2.7-3.847,3.15-4.933,10-5-2.17,6.537-.93,13.568,3,17q-0.495-8.5-1-17c5.71,0,13.17-.961,17,2-3.3,4.125-2.64,5.154-1,11,1.33,0.667,2.67,1.333,4,2,5.28-1.979,10.06-2.157,15,0-1.67-1.333-3.33-2.667-5-4V53c9.07-1.788,11.42-1.937,22-5-0.67-1.666-1.33-3.334-2-5h11c-2.24,3.583-3.02,5.355-3,12h1c0.67-.667,1.33-1.333,2-2,5.71-1.52,9.49-3.906,8-10h17c-0.98,5.309-2.09,8.267,2,11l3,3,22-5c-0.3-5.892.97-5.372,5-9,0.67,0.333,1.33.667,2,1v7c24.45-10.914,66.29-8.109,102-8,7.45,13.877,23.43,14.968,30,30l3-2c0.33-1.333.67-2.667,1-4,1.67,1.333,3.33,2.667,5,4Q3148,105,3151,139ZM1371,44q-4.005,4.5-8,9l11-1C1373.85,46.718,1373.95,46.274,1371,44Zm180,1v5h5c0.67-.667,1.33-1.333,2-2-0.33-.667-0.67-1.333-1-2Zm-208,1c-1.08,3.747-1.74,1.192,0,5,0.67,0.333,1.33.667,2,1l13-1c0.33-1,.67-2,1-3C1352.06,48.717,1350.06,47.035,1343,46Zm-16,1,9,4c-0.33-1.333-.67-2.667-1-4h-8Zm332,0c8.08,1.154,24.69,2.294,31,5l3,5c4.03-5.536,27.49,2.2,35,5,0.67-1.333,1.33-2.667,2-4,10.64,7.277,39.27,16.687,56,20,0.56,19.113,10.1,35.13,16,50q19.995,53,40,106l-85,2c-5.26-28.269-54.12-150.043-71-163-8.68-6.662-22-9.877-36-11V49C1655.18,49.234,1655.81,50.042,1659,47Zm623,0-6,8,9-2Zm674,0v4h3c0.33-.667.67-1.333,1-2V48ZM1493,48c1.93,3.027.2,1.619,4,3-0.67-1-1.33-2-2-3h-2Zm797,0c0.67,1,1.33,2,2,3V48h-2Zm25,9c4.97-.555,3.87.19,6-3l3-5V48C2316.93,48.434,2315.14,49.394,2315,57Zm-814-8v3h9V50Zm1427,2,3,5c1.67-1.333,3.33-2.667,5-4Zm-660,1c-0.33,2-.67,4-1,6h1c1.67-1.333,3.33-2.667,5-4C2269.41,53.278,2270.13,53.3,2268,52Zm169,0V62c-13.36.476-30.31,2.016-39,8-20.67,14.237-14,96.868-14,134,0,13.063,4.13,41.247-2,50-2.79-2.405-75.46-3.47-78-3,0.52-51.187,9.6-154.186-14-181Zm-131,1v4l6,1c0.33-1,.67-2,1-3V54Zm656,1c-0.67,1.666-1.33,3.334-2,5h4V54h-2Zm-544,3-3,2v1h5V57h-2Zm522,0q-2.505,4-5,8c6.91-.879,9.16-3.044,7-8h-2Zm-39,11c-0.33.667-.67,1.333-1,2h6V68h-5ZM770,108l2,3C768.963,109.057,770.956,110.672,770,108Zm-280,1h5c0.278,2.366-.222,1.247,1,4l-8,1v-1Zm277,1h2l-2,2v-2Zm-20,2,2,2Zm-248,4q1,4,2,8l-5,3-6-4C491.5,118.605,490.691,116.063,499,116Zm287,0q0.5,1,1,2Q786.5,117,786,116Zm386,0,16,1-15,29h-1V116Zm669,1c14-.491,23.29-1.506,32,4,0.33,1.666.67,3.334,1,5l-3,2c-0.67,1.333-1.33,2.667-2,4,13.74,22.11-21.02,41.906-32,22C1825.7,142.2,1840.08,129.663,1841,117ZM789,125h2C789.255,125.977,790.78,125.912,789,125Zm1,3c1.926,1.517,1.77,1.791,3,4-3.891-1-3-.388-5-3l2,1v-2Zm4,1h0Zm-11,13q-1,3-2,6l3-1Q783.5,144.5,783,142Zm-5,9q0.5,3,1,6h1v-2l3-3C779.894,151.993,781.412,152.083,778,151Zm-3,8c-0.161,9.127-1.056,4.741,6,8-1.359-4.377-2.114-6.063-2-5l-2-3h-2Zm-314,3,1,2Zm303,4h0Zm16,2q0.5,1,1,2,0.5-1,1-2h-2Zm-15,1q0.5,1.5,1,3l2-2Zm28,2,3,2h-3v-2Zm-433,3h2l-2,2v-2Zm32,46h2c-1.963,2.066-.375,1.035-4,2Zm4,0h0Zm1307,27c0.33-2.666.67-5.334,1-8,5.64-7.8,14.9-8.979,26-6,1.67,2,3.33,4,5,6-1.47,4.3-2.1,5.132-6,7C1722.91,249.093,1712.51,247.262,1703,247Zm232-12h0Zm4,0h0ZM529,238q0.5,1,1,2h-2Q528.5,239,529,238ZM384,250q-1,6.5-2,13l4-2-2,3,10-3-3-5,1-1h3l1,1q-0.5,4-1,8c12.717-2.014,23.274-1.282,36,0-1.068,81.778,24.249,149.125,74,181,24.468,15.677,70.852,20.681,99,4,53.341-31.61,60.117-102.138,59-186,5.63-1.056,2.049-1.186,6-4,8.685,12.855,52.068-3.284,78,3l8-1c1.072,94.861-35.213,160.4-99,198-18.129,10.687-40.432,18.5-63,24-124.09,30.264-217.912-48.851-244-135-7.582-25.039-8.144-53.412-8-84,7.033,2.377,40.512,1.218,39-4Zm1130,4c31.58,13.793,82.38-10.812,102,14,9.53,12.051,18.36,26.354,23,43,25.74,92.3-60.87,176.831-154,162-33.83-5.389-58.59-14.08-86-22-6.78-18.464-23.18-78.253-20-97l22-6c7.48,44.875,74.9,122.475,137,91,48.83-24.746,39.31-117.836-14-130-4.54,8.584-12.92,13.928-26,11V296c-24-10.81-52.45-21.5-69-40C1444.8,256.24,1505.55,260.067,1514,254Zm-412,2h3c-0.67.667-1.33,1.333-2,2v2h-1v-4Zm212,0c-0.54,39.263-4.23,156.453,10,177,7.02,10.136,26.1,12.943,43,13q0.495,10,1,20l-111,1c-15.21.008-37.04-1.754-44,7-1.67-2-3.33-4-5-6h-22V449l12-1c-0.33-1.333-.67-2.667-1-4,13.44,2.249,25.46-.208,32-10,13.54-20.283,5.46-137.108,5-175Zm426,0,87,1q19.005,48,38,96c0.67-.333,1.33-0.667,2-1q16.005-47.495,32-95h34q-24.99,66.494-50,133-13.005,36-26,72l-34,1Q1781.51,359.511,1740,256Zm-924,2c36.5-.178,48.563,2.628,80,7-1.208,77.064,8.56,147.879,62,170,16.262,6.732,40.9,8.264,60,4,72.6-16.213,84.83-83.429,84-173l32-2c3.28,115.489-22.41,183.323-111,210-27.3,8.221-70.867,9.66-101,2-21.64-5.5-41.5-14.082-57-26C818.774,414.45,815.511,340.673,816,258Zm1276,0,80,1c-0.56,40.747-5.02,152.359,17,167,8.38,5.569,23.99,5.6,36,7q0.495,9.5,1,19l-182,3q0.495-10,1-20c16.94,0.033,35.14-3.767,42-14C2103.24,396.775,2092.47,296.922,2092,258Zm521,1h4v1Zm-328,1,80,1c-0.49,35.329-4.88,131.929,10,151,8.25,10.577,40.21,11.863,58,9,72.33-11.642,69.42-21.031,92-81l22,3c-4.08,34.441-9.15,73.481-20,104l-295,5V433h2c17.76-6.778,36.43-1.669,46-16C2295.79,393.339,2285.4,298.1,2285,260Zm250,187V428c16.44-1.127,35.97-3.091,45-12,17.09-16.873,9.17-128.657,8-154h11v1h-2c-1.5,1.65-3.04,1.826-5,3l4,1c13.14-5.172,52.24,4.531,72,0-4.29,12.713,2.53,129.7,9,139,13.21,18.981,81.19,12.44,102,4,39.37-15.966,28.29-49.5,50-75l21,4v1Q2840,391.5,2830,443Zm65-185,10,1C2602.72,263.328,2604.54,265,2600,262Zm12,1h0ZM178,264c-0.447,37.22-3.6,164.433,10,182,8.722,11.265,42.879,12.087,62,9,69.055-11.147,66.554-24.026,88-81l22,4v1c-4.17,33.9-9.261,72.79-20,103l-187,2c-21.484,3.467-64.274,6.124-84,1l-2-8h6l-2-14c36.664-4.675,28.621-53.731,28-92V314c-1.44-9.494-4.873-41.08,1-48Zm2940,3q-1.005,20-2,40l-22-1c-0.56-14.555-2.18-30.538-7-41Zm-459,0h0Zm179,156c16.7-.239,38.43-3.2,46-13,16.6-21.507,7.56-103.377,7-140l3,1,24-3c0.76,5.222,1.88,6.415,5,9,24.21-6.667,25.27-3.059,48-5-0.49,32.729-3.3,121.559,14,134,10.53,7.57,31.22,6,49,6,71.33,0,92.98-26.03,107-82l22,4q-9.495,51.995-19,104l-306,5V423Zm106-154h0Zm-6,1c0.33,0.667.67,1.333,1,2C2938.67,271.333,2938.33,270.667,2938,270Zm20,1c0.33,0.667.67,1.333,1,2C2958.67,272.333,2958.33,271.667,2958,271Zm-714,65c6.1,0.332,8.28,1.746,12,4q1.005,6.5,2,13c40.3,3.973,2.11,48.567-12,54-30.8,11.863-31.1-23.3-19-38-3.74-2-2.13-.085-3-5,5.59-8.44,9.67-16.9,15-26C2240.67,337.333,2242.33,336.667,2244,336ZM553,338h8c0.386,8.154-.212,15.059-4,19l-4,4V338ZM2240,476c38.01-.452,69.34,2.217,96,13,96.43,39.009,157.89,163.127,103,289-28.93,66.353-85.96,104.014-169,117-158.42,24.774-268.96-138.1-212-284,21.84-55.929,61.23-99,117-121C2194.37,482.359,2218.43,484.444,2240,476ZM1233,865v5c-84.89.22-122.8-25.886-154-79-12.32-20.964-36.19-89.242-52-100-8.05-5.477-24.14-5.831-37-6-2.551,33.167-9.149,126.877,7,145,7.2,8.076,25.46,10.7,40,11v20l-334-7V834c13.993-.228,27.3-3.446,36-9,6.5-25.431-23.02-80.258-31-105l-110-3c-4.726,15.374-37.822,90.425-29,104,5.511,8.48,26.074,10.318,39,11v20l-317-7V826h2c18.218-6.834,36.723-.03,47-14,16.209-22.033,11.321-122.875,11-162l-171-3c-4.709,34.172-9.084,146.618,6,165,7.118,8.674,26.994,11.666,42,12v20L72,840l1-24c28.485-5.563,19.4-37.939,24-68l2-95c7.32-47.9,4.446-112.791,2-162l85-2c-10.141,33.279-5.682,86.634-6,125l172,4c0.17-38.377,9.4-87.7,0-123l85,2c-7.835,27.246,1.044,61.573-4,93q-2,73.493-4,147c-0.94,29.659-4.122,71.737,13,84,7.3,5.229,17.143,5.188,28,7,45.825,7.646,57.352-39.977,70-70,5.9-14.018,18.333-29.75,10-50l-7,1,4-4c2.3-3.553,13.027-7.645,15-8,0.456,2.674-.615,1.509,2,4h1l79-192c2.235,1.531,18.281-1.481,25-4l2,3-8,1v1l57-1q15.5,46,31,92l58,168c12.9,33.178,23.12,79.385,75,66,35.612-9.188,20.837-50.79,27-90q1-47,2-94c6.8-43.328,3.141-95.367,2-139l27-2c0.024,3.062-.962,1.4,1,4q0.5-1,1-2c4.159-1.023,14.85-5.7,23-2h-8q0.5,1,1,2l33-1q-1.5,75.993-3,152c63.98,1.073,106.79-18.906,109-77l-4,1c-3.02-21.789-4.57-37.607-1-57q-6.495-10-13-20v-1c6.26-.683,40.53-8.535,53-1-0.33,1.666-.67,3.334-1,5h7c10.24-3.085,20.7-3.385,32-3,18.37,54.789,15.1,104.291-28,135-12.36,8.81-27.57,12.719-41,21,31.02,66.161,67.94,128.735,115,179,17.1,0.142,38.24-1.486,46-11,14.53-17.811,10.9-62,11-93q1.5-76.493,3-153c3.7-24.171,3.76-65.36-3-85,33.41-4.257,65.06-7.441,98-10-0.33.667-.67,1.333-1,2l-9,3c-4.4,25.107.28,56.846-4,86q-1.995,74.993-4,150c-0.36,30.328-6.37,73.436,7,93,8.33,12.192,36.61,17.9,60,14,83.91-13.993,145.77-90.072,129-198-5.61-36.07-7.73-63.074-23-88-18.19-29.689-48.04-49.023-87-58l-42-5,90-3,38-4,46,24c57.21,40.7,90.44,137.346,55,227-18.59,47.039-44.54,62.245-79,92-7.3,6.3-10.9,15.944-19,22-3.21-.032-17-4-17-4-30.23,12.149-64.56,15.987-103,22ZM3213,485c3.41,2.325,5.06,8.933,6,15-5.72-1.362-10.76-.239-15,7h-1v-4c-2.94,1.977-7.27,1.969-11-2C3197.4,492.43,3205.09,491.024,3213,485ZM2033,596l-22,3c-14.17-64.894-66.05-114.05-149-89-13.44,4.058-27.92,7.64-36,17l10-4v2c6.9,16.712-18.04,31.217-26,38h-7c-0.3-8.422.6-14.009,3-19-1.67,1.333-3.33,2.667-5,4-12.45,26.671-28.07,42.505-37,78-22.68,90.128,17.24,219.271,86,234,1.95-3.381,1.6-2.964,6-4,0.67,1,1.33,2,2,3l-3,4c12.12,2.281,38.04,13.2,53,6,8.05-3.873,13.28-13.913,22-13-1.38-1.678-2.29-1.753-4-3l7-1c-2.12-2.606-2.66-2.074-4-6l6-6c-1.33-2-2.67-4-4-6-0.67,1-1.33,2-2,3l-3-1c1.02-3.868,1.54-.471,0-4,3.09-4.416,4.78-7.452,10-10,1.41,6.212.03,3.742,6,4-0.33,2.333-.67,4.667-1,7,7.05-5.283,9.53-14.527,16-20,4.58-3.873,8.75-2.853,13-6l6,2c-10.51,17.336-27.25,35.317-42,55,28.03-7.624,53-33.517,69-59q9.495-16.5,19-33l21,5v1c-16.27,33.206-16.78,74.853-35,105l-62,11-53,5c-0.48,8.657-5.47,13.6-9,17-1.78-3.583.53-1.184-3-3q-3.495,4-7,8c-0.67-.667-1.33-1.333-2-2v-3l-3,2s-4.86-5.253-7-5c-4.98.588-8.76,8.394-15,5,9.21-1.192,27.07-14.7,26-20,0.33-.667.67-1.333,1-2-19.96,1.288-42.42-5.283-61-11-73.37-22.577-118.38-64.622-139-140-4.76-17.415-9.58-43-6-65,6.02-37.006,8.7-63.855,24-90,64.98-111.007,166.22-114.507,332-95Q2028.5,545.495,2033,596Zm442-106c88.78-.991,237.59-6.246,286,32,10.82,8.547,17.32,21.137,23,35,28.52,69.6-22.07,128.56-74,142,3.23,15.613,14.61,30.356,22,43,24.45,41.856,44.42,89.107,77,123,13.55,14.1,48,21.146,63,1s9.81-72.17,10-105q1.995-79.992,4-160c0.27-22.732,3.28-54.556-6-69-6.98-10.862-24.68-14.63-42-15V501c25.46,0.378,45.14,2.807,71,3-0.33,1-.67,2-1,3-5.61.057-3.66-2.069-6,2h3q5.505-2.5,11-5c-1.33-.667-2.67-1.333-4-2,24.87-.191,49.96.674,67,0v1l-3,1,24,1c-1.33-.667-2.67-1.333-4-2,56.35-.075,73.92,3.287,126,3q1.5,47,3,94l-21,1c-1.91-33.484-15.93-61.723-45-69l-39-3h-47c-16.76,13.208-.69,101.957-8,115-3.96,7.069-1.54,27.351,1,32h12c-1.7-6.708,3.72-7.643,8-6v7c64.56,1.131,75.54,5.98,86-50h22q-1.5,67.493-3,135l-22-1c-2.99-46.811-18.4-52.992-68-53-10.17,0-31.68-3.81-37,1-7.1,17.671-2.84,146.117,4,155,14.25,18.506,92.4,14.289,115,5,29.86-12.277,32.36-45.307,48-72l21,5c-0.84,16.58-20.71,83.816-17,89,2.64,3.74,7.24,7.412,12,6,15.77-5.452,12.06-23.467,35-24-8.95,23.705-28.97,35.891-57,40,0.67-2.666,1.33-5.334,2-8-23.39-.527-38.49-1.648-52,8-10.57-1.724-17.99-6.713-25-10l-210-4c-1.95,5.282-2.41,3.688-7,6l9,20h1v-2q4.995-9.5,10-19l9,1c-8.43,3.338-3.83,25.906,0,30l-13-1c6.08-3.925,3.56-14.685,3-24h-1c-1.17,7.008-6.14,21.312-12,24q-4.995-11-10-22c-0.56,11.407-1.85,17.356,4,23h-11c0.33-.667.67-1.333,1-2,5.11-3.44,6.39-25.39,0-28-8.39-7.5-34.95-4.24-47-7-15.56-3.565-31.87-8.464-44-16-36.86-22.893-60.85-81.891-79-123-9.52-21.567-20.47-49.142-57-39-0.49,36.008-9.51,121.3,6,142,7.12,9.5,26.01,12.668,42,13q-0.495,10-1,20l-179-4V881h-1c-30.71,9.886-68.12-16.022-47-45,24.63-33.79,87.48-20.615,64,34h5c10.87-3.408,21.17-5.8,26-15,11.69-22.246,3.4-57.574,7-88q1.995-76.493,4-153c0.17-27.631,5.7-61.891-3-84-7.88-20.039-25.62-13.329-45-22Q2474.5,499,2475,490Zm-1097,2,3,2-7-1Zm3,0h4v1Zm1038,6h3c10.84,7.616,28.33,49.493-2,34-6.62-10.931-3.84-19.989-5-32C2416.33,499.333,2417.67,498.667,2419,498Zm484,2c3.63,0.644,3.03.4,5,2h-9C2902.08,501.7,2905.05,502.95,2903,500Zm-10,1h0Zm184,1h0Zm-841,1-30,9c-40.56,22.29-58.09,66.875-68,120-19.36,103.783,26.05,255.107,134,236,78.36-13.87,110.69-123.377,93-225C2351.51,565.534,2327.92,502.059,2236,503Zm687,0h0Zm165,0h0Zm124,0,3,1c0.67,2.333,1.33,4.667,2,7C3211.97,509.477,3212.15,509.284,3212,503Zm-205,1h0Zm-125,1c0.92,0.388,1.23.009,1,0h-1Zm-8,1h0Zm3,0h0Zm-12,1h0Zm96,0h0Zm5,0h0Zm20,0v3l6-2Zm-124,2v2l3-2h-3Zm143,0c-0.33.333-.67,0.667-1,1,0.33,0.667.67,1.333,1,2,0.67-.333,1.33-0.667,2-1-0.33-.667-0.67-1.333-1-2h-1Zm201,2,12,1c3.17,10.367,19.17,62.832,12,74-2.03,3.157-8.24,4.048-11,6-5.77-3.425-13.93-4.64-18-10,1.37-3.306,1.81-4.291,1-8-12.71-2.627-15.69-17.184-15-33C3201.7,530.646,3197.87,526.771,3206,511ZM2597,697c21.22,0.42,43.92,1.2,59-5,41.41-17.024,71.85-92.632,38-141-8.07-11.534-63-50.854-88-28-10.53,7.693-3.64,29.915-6,46Q2598.5,632.993,2597,697Zm452-170c0.33,0.667.67,1.333,1,2,0.33-.667.67-1.333,1-2h-2ZM654,560L608,686l90,2-31-93C663.435,584.756,662.3,565.555,654,560Zm2319,32c0.33,0.667.67,1.333,1,2C2973.67,593.333,2973.33,592.667,2973,592Zm248,0h2c-1.53,4.63-2.09,5.617-7,7v-1C3217.67,596,3219.33,594,3221,592Zm-241,3c0.33,0.667.67,1.333,1,2C2980.67,596.333,2980.33,595.667,2980,595Zm17,17c2.62,1.775,1.36.063,1,3h-1v-3Zm78,1c-0.33,3-.67,6-1,9l-15,14h-17v-3c-0.33-2-.67-4-1-6C3046.7,615.368,3057.02,612.375,3075,613Zm138,0q-0.495,6-1,12c-3.49,1.268-3.54,1.66-6,2v-1Q3209.5,619.5,3213,613Zm-238,2h2c-0.67.667-1.33,1.333-2,2v-2Zm-7,2h2C2968.25,617.977,2969.78,617.912,2968,617Zm51,1c0.33,1,.67,2,1,3-0.67-.333-1.33-0.667-2-1C3018.33,619.333,3018.67,618.667,3019,618ZM528,622q0.5,1,1,2h-2Q527.5,623,528,622Zm-41,1,2,2Zm2493,0c0.33,0.667.67,1.333,1,2C2980.67,624.333,2980.33,623.667,2980,623Zm20,1h2c-0.67.667-1.33,1.333-2,2v-2Zm9,1h2c-0.67.667-1.33,1.333-2,2v-2Zm-8,4h2c-0.67.667-1.33,1.333-2,2v-2Zm-34,4h3v1l-3,1v-2ZM507,635h3l-3,3h-1Zm-50,6,3,2Zm55,2c1.86,2.573.082,1.584-2,3Zm-55,1,4,1v9c-3.062-.024-1.4.962-4-1l-3-2v-3Zm2520,0h2c-0.67.667-1.33,1.333-2,2v-2ZM575,646q0.5,1.5,1,3l-2-1Q574.5,647,575,646Zm2443,2h5c-0.33,2-.67,4-1,6h-1c-0.33-.667-0.67-1.333-1-2C3017.25,649.529,3018.07,651.117,3018,648ZM517,662h2l-3,4Q516.5,664,517,662Zm2450,0,6,1v3c-0.67.333-1.33,0.667-2,1-1.67-1-3.33-2-5-3C2966.33,663.333,2966.67,662.667,2967,662ZM546,663h2c-1.1,4.391-1.023,3.816-4,6v-5Zm2420,4c0.67,0.667,1.33,1.333,2,2C2967.33,668.333,2966.67,667.667,2966,667Zm23,1c2.21,2.559,1.2.579,1,4-0.67-.667-1.33-1.333-2-2C2988.33,669.333,2988.67,668.667,2989,668Zm16,3c0.67,0.667,1.33,1.333,2,2h-3C3004.33,672.333,3004.67,671.667,3005,671ZM1642,742l7,1,6,6c0.69,13.962-.02,21.743-8,27-8.98-1.885-17.97-.013-22-7C1620.7,757.237,1635.28,746.939,1642,742Zm166,23h2c-0.67.667-1.33,1.333-2,2v-2Zm208,5c0.67,0.667,1.33,1.333,2,2-0.67.333-1.33,0.667-2,1v-3ZM599,774h2l-2,2v-2Zm1241,2c4.25,0.943,3.35,1.154,6,3-0.67,1-1.33,2-2,3h-3l-3-5C1838.67,776.667,1839.33,776.333,1840,776Zm59,1c4.35,3.973,9.49,7.94,15,13-1.18,3.313-.45,9.183,1,14-3.63.644-3.03,0.4-5,2,1.68,1.085,1.55.733,0,2-0.67,1.333-1.33,2.667-2,4-5.62-2.14-16.57-3.141-23-2-0.22-4.513-.71-5.391-2-8-4.71,1.032-8.26.38-13-3,3.68-2.884,7.01-1.682,11-3-3.98-3.019.01-3.78-1-8C1886.46,781.271,1894.57,783.134,1899,777Zm35,1h2c-0.33,1-.67,2-1,3h-1c-0.33-.333-0.67-0.667-1-1v-1C1933.33,778.667,1933.67,778.333,1934,778Zm-92,6,5,2c0.67,3,1.33,6,2,9l-6,3c-5.97.942-11,2.631-20,1-0.33-1.333-.67-2.667-1-4,3.58-1.675,4.76-5.664,9-9A13.991,13.991,0,0,0,1842,784Zm347,3,9,1,3,7c-2,4.46-2.95,5.64-7,8-2.67-1-5.33-2-8-3C2184.57,793.154,2185.89,791.3,2189,787Zm-371,2,3,3v2l-3,2-3-2v-1Zm62,11h0Zm-29,2c3.65,1.059,2.94.814,5,3-1.33.667-2.67,1.333-4,2C1851.67,805.333,1851.33,803.667,1851,802Zm87,3h2C1938.25,805.977,1939.78,805.912,1938,805Zm46,5h0Zm-66,1c1.33,0.667,2.67,1.333,4,2-1.01,4.962-.7,3.748-4,6-0.67-.333-1.33-0.667-2-1v-2c-0.33-1-.67-2-1-3Zm-496,5c3.41,1.4,3.07,1.345,5,4-0.67,1-1.33,2-2,3-4.42-.774-3.71-0.6-6-3Zm551,1h0Zm12,0h2l-3,2C1984.33,818.333,1984.67,817.667,1985,817ZM43,820v0Zm1364,0c2.04,1.8.71,0.015,2,3h-2v-3Zm-786,1h3v1l-3,1v-2Zm768,0c3.58,1.782,1.18-.531,3,3h-1C1390.33,823,1389.67,822,1389,821Zm559,1c0.33,0.667.67,1.333,1,2C1948.67,823.333,1948.33,822.667,1948,822Zm-532,2c0.33,0.667.67,1.333,1,2h-2C1415.33,825.333,1415.67,824.667,1416,824Zm554,1h0Zm-104,2h3c-0.36,2.755,0,2.157-2,5l-3-2C1866.96,828.073,1864.02,829.746,1866,827Zm63,4h0Zm-501,5h3v1l-3,1v-2Zm533,2c1.63,2.52.99,0.166,0,3h-1C1960.33,840,1960.67,839,1961,838Zm-25,2c0.33,0.667.67,1.333,1,2C1936.58,841.072,1937.8,841.324,1936,840Zm19,1h2c-0.67.667-1.33,1.333-2,2v-2Zm9,2h0ZM262,856c-0.316,18.825-4.258,51.718,3,65,5.139,0.374,6.077.242,8,4H237v-3c5.465-.588,6.669-1.8,10-4V856l-15,2-6,12h-4v-3q1-9,2-18h1c13.1,6.96,47.5,3.411,61,0q0.5,10.5,1,21h-4c-0.709-6.961-2.928-8.847-6-13Zm-83-6c57.551-2.328,56.936,68.24,12,77-38.044,7.416-54.664-37.86-36-63C160.763,856.237,169.4,854.2,179,850Zm162,0c11.107-.29,21.177.245,29,3q1,9,2,18h-4c-1.842-7.6-5.21-12.325-12-15-33.761-10.41-42.164,36.773-27,57,20.285,27.058,33.722-5.962,46-9l-6,20c-13.816,11.613-48.862-1.566-55-9C288.032,883.547,316.094,860.6,341,850Zm65,0c58.282-2.345,57.662,68.313,12,77-35.322,6.72-54.444-34.352-37-61C386.777,857.175,395.988,854.818,406,850Zm1529,1c1.99,2.649,1.13,1.963,5,3v-3h-5ZM71,852c34.027-1.205,64.83-1.7,71,25,7.37,31.9-30.888,60.459-62,47v-1c12.3-8.25-4.537-40.382-5-50h2c1.047,4.979-.348,3.345,4,5v-4l-3-15C73.1,857.822,72.039,857.18,71,852Zm384,0h23l22,50h1l1-1,20-49h23v3l-8,3c-3.221,16.679-1.348,45.839,2,62,3.87,1.345,6.1,1.353,8,5H515v-3l8-3V866l-2,1-23,57-5-1-24-54c-0.181,17.674-2.412,36.107,1,51,4.413,0.912,7.084,1.284,9,5H452v-3c5.087-.811,5.984-1.109,8-5,3.593-12.024,8.429-44.713,3-58C460.419,855.658,457.143,855.882,455,852Zm-276,3c-15.723,12.26-23.865,54.209,0,65l12,2c20.681-9.337,22.53-57.242,0-66Zm227,0c-20.311,15.668-22.136,76.212,18,65C438.724,901.309,441.518,853.846,406,855ZM92,856c-5.069,8.615-5.122,58.161,2,63C125.528,934.306,148.284,853.394,92,856Zm1797,4h2c-0.67.667-1.33,1.333-2,2v-2Zm-450,10c0.67,0.667,1.33,1.333,2,2C1440.33,871.333,1439.67,870.667,1439,870Zm13,1c11.15-.169,15.92,2.64,22,7l3,13c-6.13,6.927-8.77,9.637-10,17-2.66-2.456-1.53-1.363-2-4-5.35.348-12.06-2.094-17-5l-6,5c1.67,1.667,3.33,3.333,5,5-1.33.667-2.67,1.333-4,2q-3.495-3.5-7-7c2.2-9.092,3.54-22.5,10-32Zm-36,4h3c-0.67,1-1.33,2-2,3-0.67-.333-1.33-0.667-2-1C1415.33,876.333,1415.67,875.667,1416,875Zm6,0,7,1v1c-0.64,3.635-.4,3.027-2,5v2C1420.95,881.706,1419.5,880.693,1422,875Zm-21,3h0Zm417,12h0Zm19,6c4.73-.058,6.66.13,9,2Zm275,3h3v48h-3V899Zm380,0h3v48h-3V899Zm152,0h4v48h-4V899Zm-778,1h0Zm-438,1h2c-0.67.667-1.33,1.333-2,2v-2Zm49,0c0.33,0.667.67,1.333,1,2C1477.67,902.333,1477.33,901.667,1477,901Zm374,1h0Zm504,0c6.04,3.055,19.9,2.642,26,0,0.33,3,.67,6,1,9h-1l-6-6-4,1c-0.55,12.028-1.41,23.737,5,29l-16-1c1.67-1,3.33-2,5-3q-0.495-13-1-26h-1c-5.21,1.6-5.43,3.38-9,6C2354.33,908,2354.67,905,2355,902Zm-417,1c6.01-.313,8.68-0.529,11,3,0.33,1.667.67,3.333,1,5-3.69-3.433-3.14-5.12-10-6-0.67,1-1.33,2-2,3,0.02,3.058.22,3.858,2,7,6.95,1.785,8.42,4.065,12,9q-1.995,5-4,10c-5.66,1.727-10.2,2.094-16,0-0.33-2.666-.67-5.334-1-8h1q4.005,4,8,8l6-3v-5q-7.005-5.5-14-11C1932.29,907.223,1934.11,906.688,1938,903Zm67,0c9.49-.26,12.79,1.626,18,5,3.53,10.471,2.63,17-3,25-7.14,2.31-12.02,2.977-20,1q-2.505-3.5-5-7c-4.77-8.6.82-16.618,5-22Zm77,0c6.01-.313,8.68-0.529,11,3,0.33,1.667.67,3.333,1,5h-1c-2.63-4.15-6.62-9.352-11-3-0.7,3.848.03,3.8,2,7,5.58,1.395,8.07,3.1,11,7,0.05,6.431-.91,8.409-3,12a30.826,30.826,0,0,1-14,1c-0.67-.333-1.33-0.667-2-1-0.33-2.666-.67-5.334-1-8h1q4.005,4,8,8c15.03-4.181-3.89-15.381-8-19C2076.29,907.223,2078.11,906.688,2082,903Zm256,0,11,1c0.33,2.333.67,4.667,1,7-4.51-2.986-3.64-5.1-11-6-1.91,3.592-2.02,2.961-2,7q7.005,5,14,10-1.005,5.5-2,11c-5.09,1.918-8.52,3.247-15,2l-3-2c-0.33-2-.67-4-1-6,0.33-.333.67-0.667,1-1q4.005,4,8,8c1.67-.333,3.33-0.667,5-1,1.11-2.834,1.82-3.293,1-6-2.72-4.984-9-7.3-13-11,0.33-3.333.67-6.667,1-10C2334.67,905,2336.33,904,2338,903Zm57,0c9.7-.319,12.88,1.433,18,5,0.67,1.667,1.33,3.333,2,5,1.64,5.514.34,11.192-1,16-11.78,9.649-40.07,5.488-29-16C2387.34,907.226,2390.3,906.237,2395,903Zm220,0,11,1c0.33,2.333.67,4.667,1,7h-1c-3.66-4.84-5.3-7.448-12-4v5q7.005,5,14,10c0.05,6.431-.91,8.409-3,12-4.86,1.306-8.57,2.043-14,1-0.67-1-1.33-2-2-3-0.33-2-.67-4-1-6,4.17,4.251,3.92,7.077,12,8,0.67-.667,1.33-1.333,2-2v-5c-3.05-5.436-8.84-5.707-12-11V906C2611.67,905,2613.33,904,2615,903Zm141,0,14,1c0.33,2.666.67,5.334,1,8q-3.495-3.5-7-7l-7,1-6,6c-2.14,7.055.01,13.8,2,19,9.93,5.051,12.6.813,19-5v3c-0.67,2-1.33,4-2,6h-4c-7.99,3.057-17.09-.52-20-6-2.9-3.229-3.23-7.395-3-14C2746.46,908.118,2749.73,906.962,2756,903Zm121,0,13,1q3.495,4,7,8c2.14,7.055-.01,13.8-2,19-9.11,5.276-16.92,5.752-26,0-2.4-7.117-3.15-12.974-1-21Zm-912,14h14c0.53-6.927.95-9.972-4-12v-1l14,1c-7.75,4.16-4.38,25.353,0,30l-14-1c4.79-2.593,4.53-7.431,4-15l-14,1c-0.35,8.207.52,11.109,4,15l-14-1,4-1c0.55-9,2.37-25.2-4-28v-1l14,1C1964.57,907.349,1964.59,910.021,1965,917Zm62-13,13,1c-5.32,3.4.45,14.28,2,21,0.33-.667.67-1.333,1-2q4.005-10,8-20c0.67,0.333,1.33.667,2,1q3.495,10.5,7,21c0.33-.667.67-1.333,1-2q2.505-9,5-18l-4-1v-1l11,1c-9.7,5.839-5.66,25.414-16,30q-3.495-10.5-7-21c-0.33.667-.67,1.333-1,2-3.23,6.063-3.26,16.221-10,19C2036.68,924.584,2033.21,910.962,2027,904Zm114,18v10l5,2v1l-15-1,4-1c0.39-9.99,1.25-23.5-3-29,9.14-.541,19.32-1.247,23,4,2.32,4.177,1.32,6.157,0,11C2150.77,921.02,2147.99,921.99,2141,922Zm19-18,14,1c-8.41,3.105-4.15,24.075,1,27h8a37.28,37.28,0,0,0,2-27h8c-5.55,3.33-4.76,19.052-6,26-5.75,4.35-15.95,8.034-21,0-3.33-5.632-1.34-20.052-4-26C2161.33,904.667,2160.67,904.333,2160,904Zm34,0h10l18,21c0.66-8.944,1.6-17.605-5-20v-1l12,1c-7.49,3.034-5.58,19.607-5,30-8.08-2.494-17.7-15.7-21-23h-1v20l5,2v1l-12-1C2203.34,929.585,2199.29,907.931,2194,904Zm37,0,14,1c-4.83,2.133-4.52,6-4,13h1c1.67-1.333,3.33-2.667,5-4l6-8-3-2,12,1c-7.5,1.811-9.86,6.946-15,11q7.995,9.5,16,19c-5.53.138-8.88-.459-12-2q-4.995-6.5-10-13c-0.38,8.346.38,11.139,4,15l-14-1,4-1C2235.49,922.2,2236.49,909.061,2231,904Zm54,13h14c0.26-7.814-.59-9.387-4-13l14,1c-8.18,3.209-4.24,26.116,0,30l-15-1c1.67-1,3.33-2,5-3q-0.495-6-1-12h-13c-0.46,8.623.09,12.113,4,16l-14-1c6.36-3.468,6.72-26.622-1-29v-1l15,1C2283.99,906.943,2284.49,910.138,2285,917Zm28-13,13,1c-7.76,4.771-4.01,24.767,0,30h-13c0.33-.667.67-1.333,1-2C2320.39,927.708,2317.04,908.492,2313,904Zm107,0c9.41-.361,18.66-0.25,24,3,0.33,0.667.67,1.333,1,2-2.75,17.6-8.43,9.8,4,26l-7-1c-5.59-3-6.56-8.976-11-13-0.67.333-1.33,0.667-2,1-0.1,7.479,1.12,9.147,4,13l-13-1c6.08-3.591,5.31-22.685,2-29C2421.33,904.667,2420.67,904.333,2420,904Zm27,0h13c-2.14,5.166.78,7.938,3,14,0.67-.333,1.33-0.667,2-1q2.505-5.5,5-11l-4-1v-1l11,1c-8.52,4-12.41,13.892-12,27,1.67,1,3.33,2,5,3l-15-1C2466.98,927.6,2451.86,907.521,2447,904Zm65,0h10q4.995,10.5,10,21v-2c5.85-8.828,3.18-19.317,19-19v1c-8.43,3.338-3.83,25.906,0,30l-13-1c4.68-3.292,3.4-16.091,3-24h-1v2c-3.71,6.447-5.26,18.573-12,22q-4.995-11-10-22c-0.67,11.084-2.08,17.237,4,23h-11c0.33-.667.67-1.333,1-2,4.83-4.166,4.62-20.867,3-28Zm52,18c-0.16,8.217,1.07,9.329,5,13h-14c0.33-.667.67-1.333,1-2,6.6-5.007,2.97-24.756-1-29,16.41-1.437,31.06,1.107,22,16Zm27-18c5.55,0.164,6.86.437,9,4,1.17,4.372-1.58,6.289-2,9,1.67,1.333,3.33,2.667,5,4-0.33,2-.67,4-1,6-2.73,6.574-9.14,9.558-17,8-0.33-1.667-.67-3.333-1-5,3.33,0.667,6.67,1.333,10,2l3-2q-1.005-5-2-10h-7q4.005-4,8-8c-1.67-1.667-3.33-3.333-5-5l-6,4C2586.5,906.016,2587.52,906.606,2591,904Zm73,0h10l9,21c0.67-.333,1.33-0.667,2-1q4.005-10,8-20l10,1c-8.2,3.707-3.37,25.866,1,30l-14-1c5.73-3.261,4.53-15.019,4-24-0.67.333-1.33,0.667-2,1q-4.995,11.5-10,23c-0.67-.333-1.33-0.667-2-1q-4.005-10.5-8-21h-2c-0.58,10.97-.76,18.346,5,23l-12-1C2670.36,930.082,2669.9,909.028,2664,904Zm43,0,14,1c-8.41,3.105-4.15,24.075,1,27h8a37.181,37.181,0,0,0,2-27h8c-5.52,3.324-4.69,19.179-6,26-5.75,4.35-15.95,8.034-21,0-3.33-5.632-1.34-20.052-4-26C2708.33,904.667,2707.67,904.333,2707,904Zm78,13h14c0.32-7.756-.36-9.581-4-13l14,1c-8.37,3.3-3.96,25.975,0,30l-14-1c4.82-2.47,5.09-9.1,3-15l-13,1c-0.38,8.346.38,11.139,4,15l-14-1c7.43-3.956,4.86-25.648,0-30l14,1C2783.99,906.943,2784.49,910.138,2785,917Zm117-13,23,1c0.33,1,.67,2,1,3v7c-1.67,1.667-3.33,3.333-5,5q5.505,7.5,11,15l-10-1-9-13h-1v10c1.33,1.333,2.67,2.667,4,4l-14-1C2909.31,930.128,2907.06,908.228,2902,904Zm54,0v7c-2.72-2.676-3.21-4.026-7-6h-4c-0.67.667-1.33,1.333-2,2,0.33,3.666.67,7.334,1,11h1c6.1-.969,5.3-2.368,9-5-0.33,3.666-.67,7.334-1,11-3.02-3.551-2.93-4.06-10-4q1.005,6.5,2,13c9.8,0.026,8.89-2.367,14-6v1c-0.67,2.333-1.33,4.667-2,7l-24-1c8.5-3.776,5.97-24.705,1-30h22Zm-950,1c-5.97,6.281-6.68,13.914-4,24l6,5,7-1c3.84-7.168,4.34-14.854,2-24-1.33-1.333-2.67-2.667-4-4h-7Zm135,15c4.51-.215,5.39-0.708,8-2V907c-2.33-.667-4.67-1.333-7-2-0.33.333-.67,0.667-1,1v14Zm255-15c-1.33,2-2.67,4-4,6-2.87,5.248-1.52,11.333,0,17l6,6,9-3c3.09-11.019,1.36-18.783-4-26h-7Zm35,0c-1.94,3.762-2.53,10.061-1,15h1c2.33-1.333,4.67-2.667,7-4q-1.005-5-2-10C2434.33,905.667,2432.67,905.333,2431,905Zm135,0c-1.94,3.762-2.53,10.061-1,15h5l3-3c0.08-5.3-.53-8.021-2-11C2569.33,905.667,2567.67,905.333,2566,905Zm312,0-3,5c-4.81,7.855-.53,17.738,3,23h7c1.67-1.667,3.33-3.333,5-5,3.98-7.594.55-16.483-3-22-0.67-.333-1.33-0.667-2-1h-7Zm35,0q-0.495,7.5-1,15h4c1.33-1,2.67-2,4-3,0.33-2.333.67-4.667,1-7l-3-4C2916.33,905.667,2914.67,905.333,2913,905Zm-1520,4h2c-0.67,1-1.33,2-2,3v-3Zm-18,1c3.4,1.346,2.07.607,4,3-0.67.667-1.33,1.333-2,2h-2v-5Zm551,0c0.33,0.667.67,1.333,1,2C1926.67,911.333,1926.33,910.667,1926,910Zm-33,1c0.33,0.667.67,1.333,1,2h-2C1892.33,912.333,1892.67,911.667,1893,911Zm-3,1c0.67,0.667,1.33,1.333,2,2C1891.33,913.333,1890.67,912.667,1890,912Zm-241,2h0Zm27,2h2c-0.33,1-.67,2-1,3h-1c-0.33-.333-0.67-0.667-1-1v-1C1675.33,916.667,1675.67,916.333,1676,916Zm188,0c0.67,0.667,1.33,1.333,2,2-0.33.667-.67,1.333-1,2h-4v-1Zm3,2c0.33,0.667.67,1.333,1,2C1867.67,919.333,1867.33,918.667,1867,918Zm-27,1h6v1l-3,1Zm-104,1c6.22,4.8,10.35,14.916,16,19-10.61,8.442-30.9,24.034-50,7-4.95-4.416,1.7-6.252-6-9,3.22-4.636.76-3.731,4-5-2.45-3.7-1.77-2.105-6-3v-2c5.89,0.632,9.07.726,14-1-0.67-1.333-1.33-2.667-2-4C1711.52,922.655,1733.61,922.234,1736,920Zm137,2c1.18,2.821.75,1-1,3C1872.33,924,1872.67,923,1873,922Zm-13,1,8,2c-0.46,6.462-1.46,8.476-7,10-2.02,2.078-1,1.365-5,2-2.31-4.679-3.76.455-6-5C1854.75,930.131,1857.12,926.569,1860,923Zm-225,1h2C1635.25,924.977,1636.78,924.912,1635,924Zm6,0,6,3q-1.995,5.5-4,11l-11,1c0.33-1,.67-2,1-3Q1637.005,930,1641,924Zm-264,1c2.07,1.963,1.04.375,2,4h-3C1376.33,927.667,1376.67,926.333,1377,925Zm493,0h2C1870.25,925.977,1871.78,925.912,1870,925Zm4,2v4h-1C1873.33,929.667,1873.67,928.333,1874,927Zm-225,1h0Zm-262,4c0.67,0.667,1.33,1.333,2,2C1388.33,933.333,1387.67,932.667,1387,932Zm511,0c0.33,0.667.67,1.333,1,2C1898.67,933.333,1898.33,932.667,1898,932Zm-525,2c3.03,1.932,1.62.2,3,4-1.33-.667-2.67-1.333-4-2C1372.33,935.333,1372.67,934.667,1373,934Zm387,4c1.33,0.667,2.67,1.333,4,2-0.67.333-1.33,0.667-2,1C1761.33,940,1760.67,939,1760,938Zm86,3h2c-0.33,1-.67,2-1,3h-1c-0.33-.333-0.67-0.667-1-1v-1C1845.33,941.667,1845.67,941.333,1846,941Zm-2,4c1.33,0.667,2.67,1.333,4,2l-3,11-4-1C1831.93,955.333,1838.53,948.621,1844,945Zm-460,1,3,9-3-2c-0.33-.667-0.67-1.333-1-2C1383.33,949.333,1383.67,947.667,1384,946Zm366,1c3.65,0.912,2.04-.038,4,2C1752.67,948.333,1751.33,947.667,1750,947Zm-171,4c0.33,0.667.67,1.333,1,2C1579.67,952.333,1579.33,951.667,1579,951Zm146,5c0.33,0.667.67,1.333,1,2C1725.67,957.333,1725.33,956.667,1725,956Zm110,3h0Zm-459,7h0Zm290,14c0.67,0.667,1.33,1.333,2,2C1667.33,981.333,1666.67,980.667,1666,980Z" transform="translate(-43 -32.969)"/>
</svg>
